<svg width="260" height="120" viewBox="0 0 260 120" fill="none" xmlns="http://www.w3.org/2000/svg">
<path d="M119.922 70.4616C48.7905 70.4616 61 28 0 28V120H260V42.1539C188.953 42.1539 191.055 70.4616 119.922 70.4616Z" fill="#607EEB" fill-opacity="0.1"/>
<path d="M112.364 17.7411C143.605 42.8675 199 70.3313 260 70.3313V120H0V36.4397C36.7829 -9.72294 81.124 -7.38526 112.364 17.7411Z" fill="#607EEB" fill-opacity="0.1"/>
<path d="M147.636 39.8972C116.395 59.5796 61 81.0928 0 81.0928V120H260V54.5444C223.217 18.3837 178.876 20.2149 147.636 39.8972Z" fill="#607EEB" fill-opacity="0.1"/>
<path d="M148.812 73.788C147.426 66.8474 143.347 62 138.889 62C136.885 62 135.625 62.4942 134.407 62.9727C133.185 63.4523 132.028 63.906 130 63.9534C127.973 63.906 126.814 63.452 125.593 62.9727C124.375 62.4946 123.114 62 121.111 62C116.654 62 112.573 66.8474 111.188 73.788C109.788 80.8028 108.7 88.4039 113.549 89.813C116.861 90.7765 119.098 87.8417 121.258 85.0043C121.528 84.6504 121.802 84.2922 122.077 83.9406C124.383 80.3935 129.176 71.9753 129.23 71.8797C129.379 71.6194 129.645 71.4505 129.941 71.4306C130.24 71.4111 130.522 71.5415 130.704 71.78L133.063 74.8811C133.299 75.1926 133.766 75.1803 133.987 74.8574L137.776 69.3064C137.894 69.1329 137.756 68.899 137.55 68.9242L135.376 69.1914C135.018 69.2357 134.693 68.9762 134.649 68.612C134.609 68.2714 134.832 67.9592 135.154 67.8835L139.664 66.8443C140.066 66.7514 140.467 66.9716 140.62 67.3461L140.621 67.3492L142.204 71.2204C142.324 71.5132 142.257 71.866 142.012 72.0628C141.65 72.3536 141.156 72.2199 140.96 71.8465L140.061 70.1277C139.926 69.8701 139.571 69.8487 139.408 70.0884L134.317 77.5446C134.171 77.759 133.943 77.9096 133.688 77.9379C133.349 77.9753 133.065 77.8416 132.875 77.5931L130.466 74.4251C130.293 74.1973 129.951 74.2172 129.809 74.4649C128.987 75.8931 127.749 78.0334 126.51 80.1225C126.342 80.4057 126.576 80.7577 126.897 80.7008C127.712 80.5536 128.726 80.45 129.968 80.45H130.03C133.999 80.45 135.666 81.5129 135.835 81.628C136.847 82.5177 137.81 83.7816 138.742 85.0043C140.616 87.4652 142.546 89.9992 145.188 89.9992C145.591 89.9992 146.011 89.9399 146.45 89.813C151.3 88.4039 150.212 80.8028 148.812 73.788Z" fill="white"/>
</svg>
