<svg xmlns="http://www.w3.org/2000/svg" width="61" height="70" fill="none"><path fill="#434A5B" d="M26.282 2.082c-3.055 2.478-4.255 4.643-4.157 7.501.019.456.088.82.372 1.943.33 1.307.36 1.395.546 1.614.103.123.273.26.37.293.656.24 1.975-.467 2.737-1.465.35-.46.831-1.495.994-2.16.154-.624.303-1.858.32-2.64.015-1.063-.103-2.583-.255-3.204-.08-.333-.181-.953-.232-1.389-.097-.895-.099-.903-.16-.895-.03.005-.267.19-.535.402M16.475 6.43c-.329 2.273-.38 4.09-.163 5.741.125.965.75 3.167 1.129 3.983.496 1.09 1.25 2.149 1.868 2.647.268.214.36.253.553.225.466-.068.83-.835.965-2.039.094-.833.045-2.106-.09-2.444-.07-.16-.072-.19 0-.111.067.08.075.063.01-.076a9 9 0 0 1-.208-.864c-.238-1.246-.725-2.545-1.489-3.953-.458-.856-1.338-2.247-1.969-3.123l-.499-.702-.107.715z"></path><path fill="#434A5B" d="M25.395 11.421c-1.11.698-1.546 1.023-2.14 1.588-1.656 1.603-2.431 3.454-2.333 5.567.036.674.31 2.205.436 2.398.105.167.129.209.178.345.074.231.47.5.754.521.317.024 1.247-.196 1.417-.333.06-.046.113-.076.117-.061s-.216.347-.481.738c-1.528 2.212-2.15 4.131-2.038 6.258.025.404.098.786.332 1.65.167.619.353 1.219.41 1.339.073.156.08.185.012.111-.063-.074-.043.022.065.33.532 1.473 1.213 1.544 2.46.247.465-.48.827-1.05 1.033-1.637.184-.531.373-1.81.385-2.619.013-.74-.127-2.267-.233-2.48-.056-.12-.055-.157.004-.12.063.029.058-.008 0-.136-.05-.091-.146-.538-.217-.98a32 32 0 0 0-.412-1.972c-.308-1.3-.373-1.653-.295-1.634.107.015.636-.813.912-1.432.46-1.037.697-2.209.795-3.957.073-1.323.013-2.446-.126-2.283-.048.044-.115-1.01-.106-1.607.003-.37.001-.378-.052-.37-.029.004-.42.24-.877.53zm-11.751 4.757c.043 1.515.065 1.996.132 2.74.143 1.544.332 2.575.692 3.776.176.585.341 1.15.368 1.251.21.782.793 2.017 1.3 2.757.54.779 1.37 1.628 1.952 1.999.423.266.704.278.95.041.165-.165.299-.759.33-1.434.052-1.11-.05-1.79-.54-3.642-.237-.905-.342-1.218-.568-1.684-.754-1.554-1.854-3.057-3.553-4.84-1.132-1.185-1.065-1.128-1.063-.964m-1.21 11.711c.18.549.386 1.216.459 1.485.071.263.136.458.144.419.01-.032.079.155.156.417.19.653.886 2.227 1.396 3.14 1.27 2.287 2.797 3.769 4.613 4.47 1.264.49 1.678.077 1.372-1.385a32 32 0 0 0-.463-1.84c-.326-1.202-.348-1.26-.718-1.904-1.062-1.863-2.617-3.31-5.012-4.657-.621-.352-2.182-1.148-2.23-1.142-.023.003.112.454.283.997"></path><path fill="#434A5B" d="M24.808 29.51c-1.453 3.34-1.765 6.113-.968 8.645.131.43.323 1.045.418 1.36.3.981.87 2.006 1.242 2.214.477.276.878.04 1.403-.813.494-.818.77-1.703.835-2.706.045-.739-.006-1.666-.134-2.238-.051-.24-.166-.828-.257-1.309-.162-.88-.506-2.095-.89-3.124-.31-.845-1.186-2.895-1.23-2.888-.024.003-.21.388-.42.86zm-11.98 6.245c.004.015.194.282.427.59.486.668.655.93.567.888-.114-.062-.03.305.142.652.442.873 2.603 3.258 3.8 4.176 1.01.781 2.192 1.416 2.882 1.547.242.044.335.078.212.072s-.506-.025-.844-.04c-.757-.03-2.25.033-3.015.136l-.574.077.497.566c.675.772.675.772.579.724-.134-.067-.076.326.093.635.328.603 2.388 2.577 3.53 3.395.758.538 1.718 1.064 2.3 1.27.694.239 1.348.382 1.646.35l.286-.031-.26.096c-.145.059-.723.26-1.284.451-.561.192-1.032.363-1.046.38-.008.017.014.052.053.078.206.119 1.15.955 1.047.93-.124-.029-.152.098-.076.373.079.283.55.76 1.257 1.273 2.8 2.036 4.823 2.82 6.73 2.586.389-.053.804-.124.91-.177.11-.046-.18.156-.644.442-1.287.806-1.686 1.075-1.671 1.127.006.023.237.184.512.348.423.251.803.54.542.405-.097-.049-.148.205-.086.428.205.736 3.745 2.279 5.755 2.509.827.097 2.07-.086 2.732-.4.639-.301 1.407-.945 1.606-1.334.158-.33.156-.73-.022-.953-.084-.12-.074-.175.078-.389.103-.137.18-.27.172-.3s-.243-.276-.523-.547c-1.42-1.374-2.949-2.132-4.514-2.237-.58-.037-2.283.262-2.894.506-.754.302-.853.316-.358.071.288-.139.56-.337.65-.473.174-.247.202-.675.06-.956-.068-.13-.047-.195.074-.311.088-.074.152-.167.143-.197-.008-.03-.177-.269-.37-.528-1.662-2.22-3.653-3.371-5.952-3.424-.729-.017-.823-.035-.624-.147.286-.146.398-.5.305-.951-.035-.15-.013-.253.047-.292.128-.07.13-.063-.31-.837-1.346-2.356-2.986-3.715-5.317-4.388-.284-.078-.416-.137-.29-.123.127.021.522-.009.88-.057.5-.067.689-.124.839-.252.2-.181.293-.625.18-.85-.044-.086-.03-.15.038-.182.13-.064.099-.175-.231-.925-1.038-2.328-2.711-4.015-4.841-4.884-1.132-.457-2.735-.765-4.502-.858a27 27 0 0 1-1.183-.064c-.085-.004-.146.004-.14.026"></path><path fill="#434A5B" d="M28.366 37.868c-.937 3.178-1.051 5.797-.351 8.007.12.393.308 1 .413 1.357.24.808.551 1.442 1.015 2.039.385.496.713.776.956.816.618.105 1.484-1.84 1.543-3.452.026-.652-.068-1.742-.161-1.9-.034-.062-.079-.28-.1-.493-.025-.205-.164-.848-.315-1.423-.286-1.115-.618-2.029-1.174-3.223-.442-.958-1.415-2.816-1.465-2.809-.028.004-.191.49-.361 1.081m5.204 4.569c-.33 2.914-.228 4.739.382 6.95.172.616.315 1.08.326 1.033.015-.054.032.01.047.135.077.718 1.087 2.477 1.912 3.348.601.627 1.006.747 1.308.383.308-.365.633-1.879.625-2.883-.006-.468-.112-1.45-.164-1.517-.025-.027-.101-.388-.174-.802-.336-1.864-1.316-3.926-3.052-6.42a48 48 0 0 0-.887-1.242l-.182-.234zm5.66 2.84c.002.052.07.574.149 1.161.126.902.233 1.373.69 3.118.578 2.23.804 2.885 1.342 3.96.817 1.62 1.977 2.935 3.254 3.666.833.48 1.206.352 1.325-.443.072-.527.029-1.538-.098-2.103-.051-.218-.18-.79-.282-1.27-.207-.98-.413-1.534-.88-2.41-.771-1.446-1.897-2.766-3.664-4.302-1.124-.977-1.836-1.511-1.836-1.377m7.29 5.026c.595.924.806 1.284.73 1.247-.045-.025-.037.099.026.324.163.584 1.374 2.249 2.651 3.64 2.008 2.196 4.373 3.371 6.267 3.117.775-.104.98-.342.89-.99-.017-.084.002-.18.037-.215.048-.061.013-.212-.192-.736-1.554-4.03-4.257-5.93-9.395-6.608a33 33 0 0 0-1.223-.155c-.019.003.081.176.209.376"></path><path fill="#434A5B" d="M43.985 57.357c-1.21.368-2.58 1.365-3.772 2.756-.557.64-1.58 2-1.57 2.065.01.032.22.102.478.173.485.132.691.235.514.26-.066.008-.098.11-.085.257.051.526.526.79 1.821 1.017 4.093.718 6.646-.134 7.904-2.658.33-.65.375-1.124.149-1.447-.105-.158-.108-.24.02-.634.075-.248.136-.469.129-.493-.007-.023-.217-.167-.462-.315-1.87-1.117-3.595-1.45-5.126-.981m9.087 1.355c-1.705.605-3.343 2.304-4.932 5.082l-.243.441.534.116c.297.066.494.138.439.162-.137.067-.117.407.04.631.182.261.625.414 1.415.496 3.969.404 6.415-.562 7.646-3.015.3-.604.435-1.12.371-1.446-.06-.335-.145-.52-.208-.454-.06.073-.063.066.095-.61.054-.243.093-.469.08-.516-.033-.118-.421-.32-1.17-.618-1.583-.637-2.822-.723-4.067-.27z"></path></svg>